<svg xmlns="http://www.w3.org/2000/svg" xmlns:xlink="http://www.w3.org/1999/xlink" width="884" height="497" viewBox="0 0 884 497">
  <defs>
    <clipPath id="clip-_08-espana">
      <rect width="884" height="497"/>
    </clipPath>
  </defs>
  <g id="_08-espana" data-name="08-espana" clip-path="url(#clip-_08-espana)">
    <rect width="884" height="497" fill="#fff" fill-opacity="0"/>
    <g id="Path-13" transform="translate(3.5 -4.75)">
      <path id="Trazado_15" data-name="Trazado 15" d="M759.34,363.8l-567.81,2.9q-37.893,1.775-36.393-33.049,3.229-31.524-29.636-41.453-47.143-12.082-70.3-54.836-10.651-36.591,16.147-65.671Q108.3,136.7,167.371,135.524L284.7,134.375q34.317.089,37.648,29.3-5.412,53.776-67.64,55.08l-84-.114q-24.085.841-27.379,12.953-5.817,16.643,11.527,27.452l56.712,38.165q40.5,22.122,84.229,21.607l27.622,1.646q36.939-1.219,32.339-35.246-.552-25.5,13.111-40.453L414.6,177.69q30.456-48.728,80.786-22.04L725,292.088q13.32,9.66,21.5,3.488,8.467-5.982,1.638-18.425-16.181-43.659-16.18-43.659-2.184-13.815-24.869-18.894-30.647-11.222-25.616-42.013,10.986-32.883,48.116-20.691l62.159,20.746q20.1,3.456,18.609,25.787l-2.694,45.289q-3.39,15.195,11.771,17.077,13.733-.818,13.237,15.945l.273,30.416Q835.608,366.983,759.34,363.8Z" fill="none" stroke="#383838" stroke-width="20"/>
      <path id="Trazado_16" data-name="Trazado 16" d="M759.34,363.8l-567.81,2.9q-37.893,1.775-36.393-33.049,3.229-31.524-29.636-41.453-47.143-12.082-70.3-54.836-10.651-36.591,16.147-65.671Q108.3,136.7,167.371,135.524L284.7,134.375q34.317.089,37.648,29.3-5.412,53.776-67.64,55.08l-84-.114q-24.085.841-27.379,12.953-5.817,16.643,11.527,27.452l56.712,38.165q40.5,22.122,84.229,21.607l27.622,1.646q36.939-1.219,32.339-35.246-.552-25.5,13.111-40.453L414.6,177.69q30.456-48.728,80.786-22.04L725,292.088q13.32,9.66,21.5,3.488,8.467-5.982,1.638-18.425-16.181-43.659-16.18-43.659-2.184-13.815-24.869-18.894-30.647-11.222-25.616-42.013,10.986-32.883,48.116-20.691l62.159,20.746q20.1,3.456,18.609,25.787l-2.694,45.289q-3.39,15.195,11.771,17.077,13.733-.818,13.237,15.945l.273,30.416Q835.608,366.983,759.34,363.8Z" fill="none" stroke="#a0a0a0" stroke-width="4"/>
    </g>
    <g id="Sentido" transform="translate(535.5 383.25)">
      <path id="Path" d="M20.476,0,14,6.477l6.476,6.477" fill="none" stroke="#000" stroke-linecap="round" stroke-linejoin="round" stroke-width="3" fill-rule="evenodd"/>
      <path id="Path-2" data-name="Path" d="M13.476,0,7,6.477l6.476,6.477" fill="none" stroke="#000" stroke-linecap="round" stroke-linejoin="round" stroke-width="3" fill-rule="evenodd"/>
      <path id="Path-3" data-name="Path" d="M6.477,0,0,6.477l6.477,6.477" fill="none" stroke="#000" stroke-linecap="round" stroke-linejoin="round" stroke-width="3" fill-rule="evenodd"/>
    </g>
    <g id="Bandera-meta" transform="translate(605.5 384.25)">
      <rect id="Rectangle" width="21" height="13" transform="translate(-0.5 -0.5)" fill="none" stroke="#000" stroke-width="1"/>
      <rect id="Rectangle-2" data-name="Rectangle" width="4" height="4" transform="translate(0 8)"/>
      <rect id="Rectangle-3" data-name="Rectangle" width="4" height="4" transform="translate(4 4)"/>
      <rect id="Rectangle-4" data-name="Rectangle" width="4" height="4"/>
      <rect id="Rectangle-5" data-name="Rectangle" width="4" height="4" transform="translate(0 4)" fill="#f0f0f0"/>
      <rect id="Rectangle-6" data-name="Rectangle" width="4" height="4" transform="translate(16 8)"/>
      <rect id="Rectangle-7" data-name="Rectangle" width="4" height="4" transform="translate(16)"/>
      <rect id="Rectangle-8" data-name="Rectangle" width="4" height="4" transform="translate(16 4)" fill="#f0f0f0"/>
      <rect id="Rectangle-9" data-name="Rectangle" width="4" height="4" transform="translate(4)" fill="#f0f0f0"/>
      <rect id="Rectangle-10" data-name="Rectangle" width="4" height="4" transform="translate(4 8)" fill="#f0f0f0"/>
      <rect id="Rectangle-11" data-name="Rectangle" width="4" height="4" transform="translate(8 8)"/>
      <rect id="Rectangle-12" data-name="Rectangle" width="4" height="4" transform="translate(12 4)"/>
      <rect id="Rectangle-13" data-name="Rectangle" width="4" height="4" transform="translate(8)"/>
      <rect id="Rectangle-14" data-name="Rectangle" width="4" height="4" transform="translate(8 4)" fill="#f0f0f0"/>
      <rect id="Rectangle-15" data-name="Rectangle" width="4" height="4" transform="translate(12)" fill="#f0f0f0"/>
      <rect id="Rectangle-16" data-name="Rectangle" width="4" height="4" transform="translate(12 8)" fill="#f0f0f0"/>
    </g>
    <g id="Curvas" transform="translate(11.5 100.25)">
      <g id="Número-de-curva" transform="translate(123 269)">
        <rect id="Rectangle-17" data-name="Rectangle" width="25" height="25" fill="#d0021b"/>
        <text id="_1" data-name="1" transform="translate(9.336 18)" fill="#fff" font-size="14" font-family="Helvetica"><tspan x="0" y="0">1</tspan></text>
      </g>
      <g id="Número-de-curva-2" data-name="Número-de-curva" transform="translate(98 209)">
        <rect id="Rectangle-18" data-name="Rectangle" width="25" height="25" fill="#d0021b"/>
        <text id="_1-2" data-name="1" transform="translate(8.489 18)" fill="#fff" font-size="14" font-family="Helvetica"><tspan x="0" y="0">2</tspan></text>
      </g>
      <g id="Número-de-curva-3" data-name="Número-de-curva" transform="translate(0 103)">
        <rect id="Rectangle-19" data-name="Rectangle" width="25" height="25" fill="#d0021b"/>
        <text id="_1-3" data-name="1" transform="translate(8.524 18)" fill="#fff" font-size="14" font-family="Helvetica"><tspan x="0" y="0">3</tspan></text>
      </g>
      <g id="Número-de-curva-4" data-name="Número-de-curva" transform="translate(327 17)">
        <rect id="Rectangle-20" data-name="Rectangle" width="25" height="25" fill="#d0021b"/>
        <text id="_1-4" data-name="1" transform="translate(8.237 18)" fill="#fff" font-size="14" font-family="Helvetica"><tspan x="0" y="0">4</tspan></text>
      </g>
      <g id="Número-de-curva-5" data-name="Número-de-curva" transform="translate(90 103)">
        <rect id="Rectangle-21" data-name="Rectangle" width="25" height="25" fill="#d0021b"/>
        <text id="_1-5" data-name="1" transform="translate(8.545 18)" fill="#fff" font-size="14" font-family="Helvetica"><tspan x="0" y="0">5</tspan></text>
      </g>
      <g id="Número-de-curva-6" data-name="Número-de-curva" transform="translate(231 165)">
        <rect id="Rectangle-22" data-name="Rectangle" width="25" height="25" fill="#d0021b"/>
        <text id="_1-6" data-name="1" transform="translate(8.258 18)" fill="#fff" font-size="14" font-family="Helvetica"><tspan x="0" y="0">6</tspan></text>
      </g>
      <g id="Número-de-curva-7" data-name="Número-de-curva" transform="translate(365 197)">
        <rect id="Rectangle-23" data-name="Rectangle" width="25" height="25" fill="#d0021b"/>
        <text id="_1-7" data-name="1" transform="translate(8.545 18)" fill="#fff" font-size="14" font-family="Helvetica"><tspan x="0" y="0">7</tspan></text>
      </g>
      <g id="Número-de-curva-8" data-name="Número-de-curva" transform="translate(302 144)">
        <rect id="Rectangle-24" data-name="Rectangle" width="25" height="25" fill="#d0021b"/>
        <text id="_1-8" data-name="1" transform="translate(8.293 18)" fill="#fff" font-size="14" font-family="Helvetica"><tspan x="0" y="0">8</tspan></text>
      </g>
      <g id="Número-de-curva-9" data-name="Número-de-curva" transform="translate(434)">
        <rect id="Rectangle-25" data-name="Rectangle" width="25" height="25" fill="#d0021b"/>
        <text id="_1-9" data-name="1" transform="translate(8.265 18)" fill="#fff" font-size="14" font-family="Helvetica"><tspan x="0" y="0">9</tspan></text>
      </g>
      <g id="Número-de-curva-10" data-name="Número-de-curva" transform="translate(749 204)">
        <rect id="Rectangle-26" data-name="Rectangle" width="25" height="25" fill="#d0021b"/>
        <text id="_1-10" data-name="1" transform="translate(4.968 18)" fill="#fff" font-size="14" font-family="Helvetica"><tspan x="0" y="0">10</tspan></text>
      </g>
      <g id="Número-de-curva-11" data-name="Número-de-curva" transform="translate(728 78)">
        <rect id="Rectangle-27" data-name="Rectangle" width="25" height="25" fill="#d0021b"/>
        <text id="_1-11" data-name="1" transform="translate(6.172 18)" fill="#fff" font-size="14" font-family="Helvetica"><tspan x="0" y="0">11</tspan></text>
      </g>
      <g id="Número-de-curva-12" data-name="Número-de-curva" transform="translate(629 57)">
        <rect id="Rectangle-28" data-name="Rectangle" width="25" height="25" fill="#d0021b"/>
        <text id="_1-12" data-name="1" transform="translate(5.325 18)" fill="#fff" font-size="14" font-family="Helvetica"><tspan x="0" y="0">12</tspan></text>
      </g>
      <g id="Número-de-curva-13" data-name="Número-de-curva" transform="translate(817 45)">
        <rect id="Rectangle-29" data-name="Rectangle" width="25" height="25" fill="#d0021b"/>
        <text id="_1-13" data-name="1" transform="translate(5.36 18)" fill="#fff" font-size="14" font-family="Helvetica"><tspan x="0" y="0">13</tspan></text>
      </g>
      <g id="Número-de-curva-14" data-name="Número-de-curva" transform="translate(762 157)">
        <rect id="Rectangle-30" data-name="Rectangle" width="25" height="25" fill="#d0021b"/>
        <text id="_1-14" data-name="1" transform="translate(5.073 18)" fill="#fff" font-size="14" font-family="Helvetica"><tspan x="0" y="0">14</tspan></text>
      </g>
      <g id="Número-de-curva-15" data-name="Número-de-curva" transform="translate(836 124)">
        <rect id="Rectangle-31" data-name="Rectangle" width="25" height="25" fill="#d0021b"/>
        <text id="_1-15" data-name="1" transform="translate(5.381 18)" fill="#fff" font-size="14" font-family="Helvetica"><tspan x="0" y="0">15</tspan></text>
      </g>
      <g id="Número-de-curva-16" data-name="Número-de-curva" transform="translate(825 249)">
        <rect id="Rectangle-32" data-name="Rectangle" width="25" height="25" fill="#d0021b"/>
        <text id="_1-16" data-name="1" transform="translate(5.094 18)" fill="#fff" font-size="14" font-family="Helvetica"><tspan x="0" y="0">16</tspan></text>
      </g>
    </g>
  </g>
</svg>
